<svg xmlns="http://www.w3.org/2000/svg" viewBox="0 0 170.37 94.54"><defs><style>.cls-1{fill:none;stroke:#939598;stroke-miterlimit:10;stroke-width:4px;}.cls-2{fill:#231f20;}</style></defs><title>Asset 2</title><g id="Layer_2" data-name="Layer 2"><g id="Layer_1-2" data-name="Layer 1"><line class="cls-1" y1="2" x2="170.37" y2="2"/><line class="cls-1" y1="24.17" x2="170.37" y2="24.17"/><line class="cls-1" y1="47.22" x2="170.37" y2="47.22"/><line class="cls-1" y1="70.7" x2="170.37" y2="70.7"/><line class="cls-1" y1="92.43" x2="170.37" y2="92.43"/><path class="cls-2" d="M93.53.12h50.82V10.2h-38.5V41.7h35.7V51.78h-35.7v42.7H93.53Z"/><path class="cls-2" d="M46.63,44.94H45.48c-6,.17-9.26,5.74-10.6,10.28-1.78,6,1.58,19.81,1.58,14.67S40.12,56,50.7,56C59,56,64.24,61,64,69.29c-.47,13.6-11.8,15.17-15,15.35h-.65c-21.71,0-35.72-13.88-35.72-37.37C12.64,24.06,27.34,10,49.87,10c9.35,0,15.53,1.79,20.47,4l2.89-9.76C69.38,2.49,60.86,0,50.15,0,19.1,0,.14,20.35,0,47.83,0,62.25,5,74.62,12.92,82.31,22,91,33.52,94.54,47.54,94.54A86.09,86.09,0,0,0,76,89.45V44.94Z"/></g></g></svg>